<mxfile host="app.diagrams.net" modified="2023-12-08T04:54:02.826Z" agent="Mozilla/5.0 (Windows NT 10.0; Win64; x64; rv:120.0) Gecko/20100101 Firefox/120.0" etag="WSZz3bbQIzcmypVvEJ1y" version="22.1.7" type="github">
  <diagram name="第 1 页" id="-YDZAZbOoPaihumaPKAI">
    <mxGraphModel dx="1464" dy="352" grid="1" gridSize="10" guides="1" tooltips="1" connect="1" arrows="1" fold="1" page="1" pageScale="1" pageWidth="827" pageHeight="1169" math="0" shadow="0">
      <root>
        <mxCell id="0" />
        <mxCell id="1" parent="0" />
        <mxCell id="u0APZQ-0mrMtIYkuVcgC-2" value="&lt;div&gt;结果：&lt;/div&gt;&lt;div&gt;我迟到了&lt;br&gt;&lt;/div&gt;" style="rounded=1;whiteSpace=wrap;html=1;fillColor=#dae8fc;strokeColor=#6c8ebf;" vertex="1" parent="1">
          <mxGeometry x="150" y="100" width="120" height="60" as="geometry" />
        </mxCell>
        <mxCell id="u0APZQ-0mrMtIYkuVcgC-3" value="&lt;div&gt;现象：&lt;/div&gt;&lt;div&gt;主体+动作&lt;br&gt;&lt;/div&gt;" style="rounded=1;whiteSpace=wrap;html=1;fillColor=#ffe6cc;strokeColor=#d79b00;" vertex="1" parent="1">
          <mxGeometry x="-30" y="280" width="120" height="60" as="geometry" />
        </mxCell>
        <mxCell id="u0APZQ-0mrMtIYkuVcgC-6" style="edgeStyle=orthogonalEdgeStyle;rounded=0;orthogonalLoop=1;jettySize=auto;html=1;entryX=0.5;entryY=1;entryDx=0;entryDy=0;curved=1;" edge="1" parent="1" source="u0APZQ-0mrMtIYkuVcgC-4" target="u0APZQ-0mrMtIYkuVcgC-2">
          <mxGeometry relative="1" as="geometry">
            <mxPoint x="200" y="170" as="targetPoint" />
          </mxGeometry>
        </mxCell>
        <mxCell id="u0APZQ-0mrMtIYkuVcgC-4" value="&lt;div&gt;我8点10分出&lt;/div&gt;&lt;div&gt;发去上班&lt;/div&gt;" style="rounded=1;whiteSpace=wrap;html=1;fillColor=#ffe6cc;strokeColor=#d79b00;" vertex="1" parent="1">
          <mxGeometry x="270" y="280" width="120" height="60" as="geometry" />
        </mxCell>
        <mxCell id="u0APZQ-0mrMtIYkuVcgC-5" style="edgeStyle=orthogonalEdgeStyle;rounded=0;orthogonalLoop=1;jettySize=auto;html=1;entryX=0.425;entryY=1.033;entryDx=0;entryDy=0;entryPerimeter=0;curved=1;exitX=0.5;exitY=0;exitDx=0;exitDy=0;" edge="1" parent="1" source="u0APZQ-0mrMtIYkuVcgC-3" target="u0APZQ-0mrMtIYkuVcgC-2">
          <mxGeometry relative="1" as="geometry" />
        </mxCell>
        <mxCell id="u0APZQ-0mrMtIYkuVcgC-7" value="" style="endArrow=none;html=1;rounded=0;strokeWidth=6;" edge="1" parent="1">
          <mxGeometry width="50" height="50" relative="1" as="geometry">
            <mxPoint x="170" y="190" as="sourcePoint" />
            <mxPoint x="244" y="190" as="targetPoint" />
          </mxGeometry>
        </mxCell>
        <mxCell id="u0APZQ-0mrMtIYkuVcgC-8" value="我出发到公司需要20分钟以上" style="rounded=1;whiteSpace=wrap;html=1;fillColor=#ffe6cc;strokeColor=#d79b00;" vertex="1" parent="1">
          <mxGeometry x="120" y="280" width="120" height="60" as="geometry" />
        </mxCell>
        <mxCell id="u0APZQ-0mrMtIYkuVcgC-9" style="edgeStyle=orthogonalEdgeStyle;rounded=0;orthogonalLoop=1;jettySize=auto;html=1;entryX=0.455;entryY=1.014;entryDx=0;entryDy=0;entryPerimeter=0;curved=1;" edge="1" parent="1" source="u0APZQ-0mrMtIYkuVcgC-8" target="u0APZQ-0mrMtIYkuVcgC-2">
          <mxGeometry relative="1" as="geometry" />
        </mxCell>
        <mxCell id="u0APZQ-0mrMtIYkuVcgC-10" value="" style="rounded=0;whiteSpace=wrap;html=1;dashed=1;fillColor=none;" vertex="1" parent="1">
          <mxGeometry x="110" y="270" width="290" height="80" as="geometry" />
        </mxCell>
        <mxCell id="u0APZQ-0mrMtIYkuVcgC-11" value="目的" style="whiteSpace=wrap;html=1;" vertex="1" parent="1">
          <mxGeometry x="-50" y="100" width="120" height="60" as="geometry" />
        </mxCell>
      </root>
    </mxGraphModel>
  </diagram>
</mxfile>
